<svg width="65" height="43" viewBox="0 0 65 43" fill="none" xmlns="http://www.w3.org/2000/svg">
<path d="M10.242 0.399999C10.338 0.399999 10.422 0.435999 10.494 0.508C10.566 0.58 10.602 0.664 10.602 0.76C10.602 0.855999 10.584 0.939999 10.548 1.012L6.876 9.328C6.456 10.276 6.078 11.002 5.742 11.506C5.418 11.998 5.034 12.37 4.59 12.622C4.146 12.874 3.57 13 2.862 13H2.142C2.022 13 1.92 12.964 1.836 12.892C1.764 12.808 1.728 12.706 1.728 12.586V11.83C1.728 11.71 1.764 11.608 1.836 11.524C1.92 11.44 2.022 11.398 2.142 11.398H2.772C3.252 11.398 3.648 11.254 3.96 10.966C4.284 10.666 4.614 10.168 4.95 9.472L0.288 0.975999C0.252 0.903999 0.234 0.838 0.234 0.778C0.234 0.681999 0.27 0.597999 0.342 0.526C0.426 0.441999 0.516 0.399999 0.612 0.399999H1.638C1.818 0.399999 1.962 0.501999 2.07 0.705999L5.814 7.528L8.82 0.705999C8.856 0.609999 8.916 0.537999 9 0.489999C9.084 0.429999 9.174 0.399999 9.27 0.399999H10.242ZM20.4269 3.64C20.5229 3.64 20.6069 3.676 20.6789 3.748C20.7509 3.808 20.7869 3.886 20.7869 3.982V12.604C20.7869 12.724 20.7509 12.82 20.6789 12.892C20.6069 12.964 20.5169 13 20.4089 13H19.5269C19.4069 13 19.3109 12.964 19.2389 12.892C19.1669 12.82 19.1309 12.724 19.1309 12.604V6.682L16.8269 11.038C16.7429 11.194 16.6589 11.314 16.5749 11.398C16.5029 11.47 16.3889 11.506 16.2329 11.506H15.7649C15.6209 11.506 15.5069 11.47 15.4229 11.398C15.3509 11.326 15.2669 11.206 15.1709 11.038L12.8849 6.79V12.604C12.8849 12.724 12.8489 12.82 12.7769 12.892C12.7049 12.964 12.6089 13 12.4889 13H11.6069C11.4869 13 11.3909 12.964 11.3189 12.892C11.2469 12.82 11.2109 12.724 11.2109 12.604V3.982C11.2109 3.898 11.2469 3.82 11.3189 3.748C11.3909 3.676 11.4749 3.64 11.5709 3.64H12.4889C12.6689 3.64 12.8189 3.736 12.9389 3.928L15.9989 9.652L19.0769 3.928C19.1729 3.736 19.3229 3.64 19.5269 3.64H20.4269ZM27.2244 13.18C25.9884 13.18 24.9984 12.802 24.2544 12.046C23.5224 11.278 23.1204 10.234 23.0484 8.914L23.0304 8.302L23.0484 7.708C23.1324 6.412 23.5404 5.38 24.2724 4.612C25.0164 3.844 25.9944 3.46 27.2064 3.46C28.5384 3.46 29.5704 3.886 30.3024 4.738C31.0344 5.578 31.4004 6.718 31.4004 8.158V8.464C31.4004 8.584 31.3584 8.686 31.2744 8.77C31.2024 8.842 31.1064 8.878 30.9864 8.878H24.7584V9.04C24.7944 9.82 25.0284 10.486 25.4604 11.038C25.9044 11.578 26.4864 11.848 27.2064 11.848C27.7584 11.848 28.2084 11.74 28.5564 11.524C28.9164 11.296 29.1804 11.062 29.3484 10.822C29.4564 10.678 29.5344 10.594 29.5824 10.57C29.6424 10.534 29.7444 10.516 29.8884 10.516H30.7704C30.8784 10.516 30.9684 10.546 31.0404 10.606C31.1124 10.666 31.1484 10.75 31.1484 10.858C31.1484 11.122 30.9804 11.44 30.6444 11.812C30.3204 12.184 29.8584 12.508 29.2584 12.784C28.6704 13.048 27.9924 13.18 27.2244 13.18ZM29.6904 7.636V7.582C29.6904 6.754 29.4624 6.082 29.0064 5.566C28.5624 5.038 27.9624 4.774 27.2064 4.774C26.4504 4.774 25.8504 5.038 25.4064 5.566C24.9744 6.082 24.7584 6.754 24.7584 7.582V7.636H29.6904ZM33.9847 16.42C33.8647 16.42 33.7627 16.378 33.6787 16.294C33.6067 16.222 33.5707 16.126 33.5707 16.006V4.054C33.5707 3.934 33.6067 3.838 33.6787 3.766C33.7627 3.682 33.8647 3.64 33.9847 3.64H34.8127C34.9327 3.64 35.0287 3.682 35.1007 3.766C35.1847 3.838 35.2267 3.934 35.2267 4.054V4.846C35.8987 3.922 36.8827 3.46 38.1787 3.46C39.4387 3.46 40.3807 3.856 41.0047 4.648C41.6407 5.44 41.9827 6.46 42.0307 7.708C42.0427 7.84 42.0487 8.044 42.0487 8.32C42.0487 8.596 42.0427 8.8 42.0307 8.932C41.9827 10.168 41.6407 11.188 41.0047 11.992C40.3687 12.784 39.4267 13.18 38.1787 13.18C36.9307 13.18 35.9587 12.73 35.2627 11.83V16.006C35.2627 16.126 35.2267 16.222 35.1547 16.294C35.0827 16.378 34.9867 16.42 34.8667 16.42H33.9847ZM37.8007 11.722C38.6527 11.722 39.2707 11.458 39.6547 10.93C40.0507 10.402 40.2667 9.706 40.3027 8.842C40.3147 8.722 40.3207 8.548 40.3207 8.32C40.3207 6.052 39.4807 4.918 37.8007 4.918C36.9727 4.918 36.3487 5.194 35.9287 5.746C35.5207 6.286 35.2987 6.934 35.2627 7.69L35.2447 8.374L35.2627 9.076C35.2867 9.784 35.5147 10.402 35.9467 10.93C36.3787 11.458 36.9967 11.722 37.8007 11.722ZM43.6672 13C43.5472 13 43.4452 12.958 43.3612 12.874C43.2772 12.79 43.2352 12.688 43.2352 12.568V11.902C43.2352 11.782 43.2712 11.686 43.3432 11.614C43.4152 11.542 43.5052 11.506 43.6132 11.506C44.1892 11.482 44.6152 11.074 44.8912 10.282C45.1792 9.478 45.3232 8.17 45.3232 6.358V4.054C45.3232 3.934 45.3592 3.838 45.4312 3.766C45.5152 3.682 45.6172 3.64 45.7372 3.64H51.4612C51.5812 3.64 51.6772 3.682 51.7492 3.766C51.8332 3.838 51.8752 3.934 51.8752 4.054V12.586C51.8752 12.706 51.8332 12.808 51.7492 12.892C51.6772 12.964 51.5812 13 51.4612 13H50.5972C50.4772 13 50.3812 12.964 50.3092 12.892C50.2372 12.808 50.2012 12.706 50.2012 12.586V5.08H46.9612V6.556C46.9612 8.848 46.6972 10.498 46.1692 11.506C45.6412 12.502 44.8072 13 43.6672 13ZM62.5146 3.64C62.6106 3.64 62.6946 3.676 62.7666 3.748C62.8506 3.82 62.8926 3.904 62.8926 4V12.586C62.8926 12.706 62.8506 12.808 62.7666 12.892C62.6946 12.964 62.5986 13 62.4786 13H61.6326C61.5126 13 61.4106 12.964 61.3266 12.892C61.2546 12.808 61.2186 12.706 61.2186 12.586V6.052L56.2326 12.73C56.1006 12.91 55.9446 13 55.7646 13H54.9546C54.8466 13 54.7506 12.964 54.6666 12.892C54.5946 12.808 54.5586 12.718 54.5586 12.622V4.054C54.5586 3.934 54.5946 3.838 54.6666 3.766C54.7506 3.682 54.8526 3.64 54.9726 3.64H55.8366C55.9566 3.64 56.0526 3.682 56.1246 3.766C56.2086 3.838 56.2506 3.934 56.2506 4.054V10.552L61.2186 3.91C61.3506 3.73 61.5066 3.64 61.6866 3.64H62.5146ZM6.925 43C6.75833 43 6.61667 42.9417 6.5 42.825C6.38333 42.7083 6.325 42.5667 6.325 42.4V29.45L2.525 32.375C2.425 32.4583 2.30833 32.5 2.175 32.5C1.975 32.5 1.80833 32.4083 1.675 32.225L0.625 30.875C0.541667 30.7417 0.5 30.6167 0.5 30.5C0.5 30.3 0.591667 30.1333 0.775 30L6.375 25.675C6.525 25.5583 6.73333 25.5 7 25.5H9.2C9.38333 25.5 9.525 25.5583 9.625 25.675C9.74167 25.775 9.8 25.9167 9.8 26.1V42.4C9.8 42.5667 9.74167 42.7083 9.625 42.825C9.525 42.9417 9.38333 43 9.2 43H6.925ZM13.2973 43C13.1306 43 12.9889 42.9417 12.8723 42.825C12.7556 42.7083 12.6973 42.5667 12.6973 42.4V41.125C12.6973 40.675 12.9056 40.2833 13.3223 39.95L17.2723 36.025C18.9889 34.675 20.1806 33.625 20.8473 32.875C21.5306 32.1083 21.8723 31.3583 21.8723 30.625C21.8723 29.8417 21.6556 29.225 21.2223 28.775C20.8056 28.325 20.1723 28.1 19.3223 28.1C18.4889 28.1 17.8306 28.35 17.3473 28.85C16.8639 29.3333 16.5639 29.9667 16.4473 30.75C16.3973 30.95 16.3056 31.1 16.1723 31.2C16.0389 31.2833 15.8889 31.325 15.7223 31.325H13.4973C13.3473 31.325 13.2223 31.275 13.1223 31.175C13.0223 31.075 12.9723 30.9583 12.9723 30.825C13.0056 29.8417 13.2723 28.925 13.7723 28.075C14.2723 27.2083 14.9973 26.5167 15.9473 26C16.8973 25.4667 18.0139 25.2 19.2973 25.2C20.6306 25.2 21.7556 25.4333 22.6723 25.9C23.6056 26.35 24.3056 26.975 24.7723 27.775C25.2389 28.575 25.4723 29.4833 25.4723 30.5C25.4723 31.6167 25.1556 32.625 24.5223 33.525C23.9056 34.425 22.9556 35.3917 21.6723 36.425L18.1223 40.025H25.2473C25.4306 40.025 25.5723 40.0833 25.6723 40.2C25.7889 40.3 25.8473 40.4417 25.8473 40.625V42.4C25.8473 42.5667 25.7889 42.7083 25.6723 42.825C25.5723 42.9417 25.4306 43 25.2473 43H13.2973Z" fill="black"/>
</svg>
